<svg xmlns="http://www.w3.org/2000/svg" width="50" height="50" fill="none"><g clip-path="url(#a)"><path d="M38.281 49.997H11.72C5.257 49.997 0 44.74 0 38.277V21.846c0-3.632 1.724-7.115 4.612-9.318l13.281-10.13a11.747 11.747 0 0 1 14.214 0l4.221 3.217V3.122c.103-2.592 3.804-2.59 3.906 0v6.436a1.953 1.953 0 0 1-3.137 1.554l-7.359-5.608a7.832 7.832 0 0 0-9.476 0L6.981 15.634a7.857 7.857 0 0 0-3.075 6.211v16.433c0 4.308 3.505 7.812 7.813 7.812H38.28c4.308 0 7.813-3.504 7.813-7.812V21.845c0-2.45-1.137-4.781-3.04-6.233a1.953 1.953 0 1 1 2.369-3.106C48.289 14.692 50 18.183 50 21.846v16.432c0 6.462-5.257 11.719-11.719 11.719ZM21.094 22.555a2.442 2.442 0 0 0-2.442 2.442c.13 3.239 4.755 3.236 4.883 0a2.441 2.441 0 0 0-2.441-2.442Zm10.254 2.442c-.13 3.239-4.755 3.236-4.883 0 .129-3.24 4.755-3.237 4.883 0Zm-7.813 7.812c-.129 3.24-4.755 3.237-4.883 0 .13-3.24 4.755-3.237 4.883 0Zm7.813 0c-.13 3.24-4.755 3.237-4.883 0 .129-3.24 4.755-3.237 4.883 0Z" fill="#0061DF"/></g><defs><clipPath id="a"><path fill="#fff" d="M0 0h50v50H0z"/></clipPath></defs></svg>